<svg width="75" height="75" viewBox="0 0 75 75" fill="none" xmlns="http://www.w3.org/2000/svg">
<path d="M40.625 26.5625H28.125C22.0844 26.5625 17.1875 21.6656 17.1875 15.625C17.1875 9.58437 22.0844 4.6875 28.125 4.6875H40.625V26.5625Z" fill="url(#paint0_linear_28_19141)"/>
<path d="M39.0625 48.4375H28.125C22.0844 48.4375 17.1875 43.5406 17.1875 37.5C17.1875 31.4594 22.0844 26.5625 28.125 26.5625H39.0625V48.4375Z" fill="url(#paint1_linear_28_19141)"/>
<path d="M28.125 70.3125C22.0844 70.3125 17.1875 65.4156 17.1875 59.375C17.1875 53.3344 22.0844 48.4375 28.125 48.4375H39.0625V59.375C39.0625 65.4156 34.1656 70.3125 28.125 70.3125Z" fill="url(#paint2_linear_28_19141)"/>
<path d="M50 26.5625H39.0625V4.6875H50C56.0406 4.6875 60.9375 9.58437 60.9375 15.625C60.9375 21.6656 56.0406 26.5625 50 26.5625Z" fill="url(#paint3_linear_28_19141)"/>
<path d="M50 48.4375C56.0406 48.4375 60.9375 43.5406 60.9375 37.5C60.9375 31.4594 56.0406 26.5625 50 26.5625C43.9594 26.5625 39.0625 31.4594 39.0625 37.5C39.0625 43.5406 43.9594 48.4375 50 48.4375Z" fill="url(#paint4_linear_28_19141)"/>
<defs>
<linearGradient id="paint0_linear_28_19141" x1="25.4828" y1="1.72031" x2="35.9734" y2="30.5406" gradientUnits="userSpaceOnUse">
<stop stop-color="#F44F5A"/>
<stop offset="0.443" stop-color="#EE3D4A"/>
<stop offset="1" stop-color="#E52030"/>
</linearGradient>
<linearGradient id="paint1_linear_28_19141" x1="24.4375" y1="22.8687" x2="34.8656" y2="51.5172" gradientUnits="userSpaceOnUse">
<stop stop-color="#AE4CD5"/>
<stop offset="1" stop-color="#9331BF"/>
</linearGradient>
<linearGradient id="paint2_linear_28_19141" x1="23.1406" y1="41.1828" x2="34.0953" y2="71.2766" gradientUnits="userSpaceOnUse">
<stop stop-color="#33C481"/>
<stop offset="1" stop-color="#21A366"/>
</linearGradient>
<linearGradient id="paint3_linear_28_19141" x1="42.9656" y1="0.8" x2="53.3109" y2="29.2219" gradientUnits="userSpaceOnUse">
<stop stop-color="#F09CA2"/>
<stop offset="1" stop-color="#EB6773"/>
</linearGradient>
<linearGradient id="paint4_linear_28_19141" x1="44.8656" y1="23.3938" x2="54.4641" y2="49.7656" gradientUnits="userSpaceOnUse">
<stop stop-color="#32BDEF"/>
<stop offset="1" stop-color="#1EA2E4"/>
</linearGradient>
</defs>
</svg>
