<svg width="75" height="75" viewBox="0 0 75 75" fill="none" xmlns="http://www.w3.org/2000/svg">
<path d="M64.0625 7.8125H10.9375L15.625 60.9375L37.5 67.1875L59.375 60.9375L64.0625 7.8125Z" fill="#E65100"/>
<path d="M37.5 12.5V62.3438L55 57.3438L58.9063 12.5H37.5Z" fill="#FF6D00"/>
<path d="M37.5 39.0625V32.8125H50.9375L49.8438 50.7812L37.5 54.8437V48.2812L43.9063 46.0937L44.375 39.0625H37.5ZM51.4063 26.5625L51.875 20.3125H37.5V26.5625H51.4063Z" fill="white"/>
<path d="M37.5 48.2812V54.8437L25.1563 50.7812L24.5313 42.1875H30.7813L31.0938 46.0937L37.5 48.2812ZM29.8438 26.5625H37.5V20.3125H23.2812L24.375 39.0625H37.5V32.8125H30.3125L29.8438 26.5625Z" fill="#EEEEEE"/>
</svg>
