<svg width="75" height="75" viewBox="0 0 75 75" fill="none" xmlns="http://www.w3.org/2000/svg">
<path d="M37.5 53.125C17.3438 53.125 1.5625 46.25 1.5625 37.5C1.5625 28.75 17.3438 21.875 37.5 21.875C57.6562 21.875 73.4375 28.75 73.4375 37.5C73.4375 46.25 57.6562 53.125 37.5 53.125ZM37.5 25C17.8125 25 4.6875 31.4062 4.6875 37.5C4.6875 43.5938 17.8125 50 37.5 50C57.1875 50 70.3125 43.5938 70.3125 37.5C70.3125 31.4062 57.1875 25 37.5 25Z" fill="#80DEEA"/>
<path d="M23.5938 69.6875C22.0313 69.6875 20.7812 69.375 19.5312 68.5938C11.875 64.2188 13.9062 47.1875 23.9062 29.6875C28.5938 21.5625 34.375 14.6875 40 10.3125C46.0937 5.625 51.5625 4.21875 55.3125 6.40625C59.2188 8.59375 60.625 14.0625 59.6875 21.7188C58.75 28.9062 55.625 37.3438 50.9375 45.4688C46.25 53.5938 40.4687 60.4688 34.8437 64.8438C30.7812 67.9688 26.875 69.6875 23.5938 69.6875ZM51.4063 8.4375C48.9063 8.4375 45.625 9.84375 42.0312 12.6563C36.7187 16.875 31.25 23.4375 26.7188 31.25C16.875 48.2812 15.9375 62.9688 21.0937 65.9375C23.75 67.5 28.125 66.0938 32.9688 62.3438C38.2812 58.125 43.75 51.5625 48.2812 43.75C52.8125 35.9375 55.7812 27.9688 56.7187 21.25C57.5 15 56.5625 10.625 53.9062 9.0625C53.125 8.75 52.3438 8.4375 51.4063 8.4375Z" fill="#80DEEA"/>
<path d="M51.5625 69.6875C43.75 69.6875 32.5 60.1562 24.0625 45.3125C13.9062 27.8125 11.875 10.7812 19.5312 6.40624C27.1875 2.03124 40.9375 12.1875 51.0938 29.6875C55.7813 37.8125 58.9062 46.25 59.8437 53.4375C60.9375 61.0937 59.375 66.4062 55.4688 68.75C54.2188 69.375 52.9688 69.6875 51.5625 69.6875ZM21.0938 9.06249C15.9375 12.0312 16.875 26.7187 26.7188 43.75C36.5625 60.7812 48.75 68.9062 53.9063 65.9375C56.5625 64.375 57.5 60 56.7187 53.75C55.7812 47.0312 52.8125 39.0625 48.2812 31.25C38.4375 14.2187 26.25 6.09374 21.0938 9.06249Z" fill="#80DEEA"/>
<path d="M37.5 43.75C40.9518 43.75 43.75 40.9518 43.75 37.5C43.75 34.0482 40.9518 31.25 37.5 31.25C34.0482 31.25 31.25 34.0482 31.25 37.5C31.25 40.9518 34.0482 43.75 37.5 43.75Z" fill="#80DEEA"/>
</svg>
